<svg width="72.826172" height="75.000000" viewBox="0 0 72.8262 75" fill="none" xmlns="http://www.w3.org/2000/svg" xmlns:xlink="http://www.w3.org/1999/xlink">
	<desc>
			Created with Pixso.
	</desc>
	<defs/>
	<path id="Subtract" d="M72.8257 0L61.9561 0L61.9561 0L67.3906 0L67.3906 0.000488281L72.8252 0.000488281L72.8252 5.43506C69.8276 5.43506 67.397 3.0083 67.3906 0.012207C67.3843 3.0083 64.9536 5.43506 61.9561 5.43506L61.9561 5.43506C64.9565 5.43555 67.3892 7.86719 67.3906 10.8677C67.3921 7.86719 69.8247 5.43506 72.8252 5.43506L72.8252 10.8696L72.8257 10.8696L72.8257 0Z" clip-rule="evenodd" fill="#EB5555" fill-opacity="1.000000" fill-rule="evenodd"/>
	<path id="Subtract" d="M10.3262 29.3477L10.3262 29.3477L0 29.3477L0 39.6738C5.68457 39.6738 10.2964 35.0806 10.3262 29.4028C10.356 35.0806 14.9673 39.6738 20.6519 39.6738L20.6519 29.3477L20.6523 29.3477L20.6523 50L20.6519 50L20.6519 39.6738C14.9492 39.6738 10.3262 44.2969 10.3262 50L10.3252 50C10.3252 44.2974 5.70264 39.6743 0 39.6738L0 29.3477L10.3262 29.3477Z" clip-rule="evenodd" fill="#EB5555" fill-opacity="1.000000" fill-rule="evenodd"/>
	<path id="Rectangle 779" d="M14.1738 5.43457L52.1304 5.43457C58.7578 5.43457 64.1304 10.8071 64.1304 17.4346L64.1304 26.0869L2.17383 26.0869L2.17383 17.4346C2.17383 10.8071 7.54639 5.43457 14.1738 5.43457Z" fill="#FFBA4A" fill-opacity="1.000000" fill-rule="evenodd"/>
	<path id="Rectangle 780" d="M40.2607 5.43457L52.1304 5.43457C58.7578 5.43457 64.1304 10.8071 64.1304 17.4346L64.1304 64.1304L28.2607 64.1304L28.2607 17.4346C28.2607 10.8071 33.6333 5.43457 40.2607 5.43457Z" fill="#FFBA4A" fill-opacity="1.000000" fill-rule="evenodd"/>
	<path id="Rectangle 778" d="M14.1738 5.43457L16.2607 5.43457C22.8882 5.43457 28.2607 10.8071 28.2607 17.4346L28.2607 26.0869L2.17383 26.0869L2.17383 17.4346C2.17383 10.8071 7.54639 5.43457 14.1738 5.43457Z" fill="#C99035" fill-opacity="1.000000" fill-rule="evenodd"/>
	<rect id="Rectangle 781" x="36.956543" y="20.652344" width="33.695652" height="4.891304" fill="#993280" fill-opacity="1.000000"/>
	<rect id="Rectangle 782" x="36.956543" y="30.434570" width="33.695652" height="4.891304" fill="#A03C7D" fill-opacity="1.000000"/>
	<rect id="Rectangle 783" x="36.956543" y="40.217285" width="22.826086" height="4.891304" fill="#A03C7D" fill-opacity="1.000000"/>
	<path id="Vector 17" d="M39.1304 64.1304L39.1304 75L43.478 70.6523L47.8262 75L47.8262 64.1304L39.1304 64.1304Z" fill="#993280" fill-opacity="1.000000" fill-rule="evenodd"/>
	<circle id="Ellipse 78" cx="43.478516" cy="59.782715" r="6.521739" fill="#EB5555" fill-opacity="1.000000"/>
</svg>
