<svg width="111.983398" height="75.000000" viewBox="0 0 111.983 75" fill="none" xmlns="http://www.w3.org/2000/svg" xmlns:xlink="http://www.w3.org/1999/xlink">
	<desc>
			Created with Pixso.
	</desc>
	<defs/>
	<path id="Rectangle 775" d="M22.9839 37.5L89.5161 37.5L89.5161 61C89.5161 68.7319 83.248 75 75.5161 75L36.9839 75C29.252 75 22.9839 68.7319 22.9839 61L22.9839 37.5Z" fill="#FFBA4A" fill-opacity="1.000000" fill-rule="evenodd"/>
	<path id="Rectangle 776" d="M65.3228 42.3389L79.8389 42.3389L79.8389 61.5322C79.8389 64.2939 77.6001 66.5322 74.8389 66.5322L70.3228 66.5322C67.5615 66.5322 65.3228 64.2939 65.3228 61.5322L65.3228 42.3389Z" fill="#CA8CBB" fill-opacity="1.000000" fill-rule="evenodd"/>
	<path id="Rectangle 777" d="M38.7095 31.4517L53.2256 31.4517L53.2256 61.5322C53.2256 64.2939 50.9868 66.5322 48.2256 66.5322L43.7095 66.5322C40.9482 66.5322 38.7095 64.2939 38.7095 61.5322L38.7095 31.4517Z" fill="#A03C7D" fill-opacity="1.000000" fill-rule="evenodd"/>
	<circle id="Ellipse 77" cx="45.967773" cy="18.145508" r="16.935484" fill="#A03C7D" fill-opacity="1.000000"/>
	<path id="Vector 15" d="M69.5566 42.3384L69.5566 13.4702L67.7422 8.22168L69.5566 3.62891L75.605 3.62891L77.4194 8.22168L75.605 13.4702L75.605 42.3384L69.5566 42.3384Z" fill="#993280" fill-opacity="1.000000" fill-rule="evenodd"/>
	<path id="Vector 16" d="M39.9194 19.9595L45.9678 22.9839L51.4111 19.9595L51.4111 0L39.9194 0L39.9194 0.60498L39.9194 1.20947L39.9194 19.9595Z" fill="#FFFFFF" fill-opacity="1.000000" fill-rule="evenodd"/>
	<path id="Subtract" d="M0 42.3389L0 42.3389L0 56.4199L0 56.4199L0 49.3794C3.87988 49.3794 7.02686 52.5176 7.04053 56.3945C7.0542 52.5264 10.1875 49.3931 14.0562 49.3794C10.188 49.3662 7.05469 46.2334 7.04053 42.3652C7.02637 46.2412 3.87939 49.3794 0 49.3794L0 42.3389ZM14.0811 56.4199L14.0811 42.3389L7.04053 42.3389L7.04053 42.3394L14.0811 42.3394L14.0811 56.4199Z" clip-rule="evenodd" fill="#EB5555" fill-opacity="1.000000" fill-rule="evenodd"/>
	<path id="Subtract" d="M82.2578 22.1206C90.4531 22.1201 97.0996 15.4863 97.1196 7.29541C97.1401 15.4868 103.787 22.1206 111.982 22.1206L111.982 7.25781L111.983 7.25781L111.983 36.9834L111.982 36.9834L111.982 22.1206C103.774 22.1206 97.1196 28.7749 97.1196 36.9834L97.1196 36.9834C97.1196 28.7754 90.4658 22.1216 82.2578 22.1206L82.2578 22.1206Z" clip-rule="evenodd" fill="#EB5555" fill-opacity="1.000000" fill-rule="evenodd"/>
</svg>
