<svg width="90.520020" height="75.000000" viewBox="0 0 90.52 75" fill="none" xmlns="http://www.w3.org/2000/svg" xmlns:xlink="http://www.w3.org/1999/xlink">
	<desc>
			Created with Pixso.
	</desc>
	<defs/>
	<path id="Rectangle 750" d="M25.6377 40.0864L70.0513 40.0864C77.7837 40.0864 84.0513 46.3545 84.0513 54.0864L84.0513 75L11.6377 75L11.6377 54.0864C11.6377 46.3545 17.9058 40.0864 25.6377 40.0864Z" fill="#FFBA4A" fill-opacity="1.000000" fill-rule="evenodd"/>
	<path id="Subtract" d="M90.52 29.7412L78.8799 29.7412L78.8799 41.3813L78.8804 41.3813L78.8804 35.5615C82.0869 35.5615 84.688 38.1548 84.7002 41.3589C84.7129 38.1548 87.3135 35.5615 90.52 35.5615L90.52 35.5615C87.3057 35.5615 84.7002 32.9556 84.7002 29.7412L90.52 29.7412L90.52 29.7412ZM84.7002 29.7412C84.7002 32.9556 82.0942 35.5615 78.8799 35.5615L78.8799 29.7412L84.7002 29.7412L84.7002 29.7412Z" clip-rule="evenodd" fill="#EB5555" fill-opacity="1.000000" fill-rule="evenodd"/>
	<path id="Subtract" d="M12.2856 11.6377C12.2856 18.4233 17.7866 23.9243 24.5723 23.9243L24.5723 11.6377L24.5732 11.6377L24.5732 36.2109L24.5723 36.2109L24.5723 23.9243C17.7866 23.9243 12.2856 29.4253 12.2856 36.2109L12.2856 36.2109C12.2856 29.4258 6.78516 23.9248 0 23.9243L0 23.9243C6.78516 23.9238 12.2856 18.4233 12.2856 11.6377L0 11.6377L0 11.6377L12.2856 11.6377Z" clip-rule="evenodd" fill="#EB5555" fill-opacity="1.000000" fill-rule="evenodd"/>
	<circle id="Ellipse 76" cx="48.491211" cy="17.457031" r="17.456896" fill="#FFBA4A" fill-opacity="1.000000"/>
	<rect id="Rectangle 747" x="27.155273" y="62.068848" width="41.379307" height="12.931034" fill="#A03C7D" fill-opacity="1.000000"/>
	<rect id="Rectangle 748" x="62.068848" y="40.086426" width="6.465517" height="34.913792" fill="#A03C7D" fill-opacity="1.000000"/>
	<rect id="Rectangle 749" x="27.155273" y="40.086426" width="6.465517" height="34.913792" fill="#A03C7D" fill-opacity="1.000000"/>
</svg>
