<svg width="1440.000000" height="381.000000" viewBox="0 0 1440 381" fill="none" xmlns="http://www.w3.org/2000/svg" xmlns:xlink="http://www.w3.org/1999/xlink">
	<desc>
			Created with Pixso.
	</desc>
	<defs/>
	<rect id="Rectangle 634" width="360.000000" height="380.999969" fill="#EE6C6C" fill-opacity="1.000000"/>
	<rect id="Rectangle 638" x="360.000000" width="360.000000" height="380.999969" fill="#FFA3B3" fill-opacity="1.000000"/>
	<path id="Rectangle 635" d="M0 360C0 161.177 161.178 0 360 0L360 381L0 381L0 360Z" fill="#FFC464" fill-opacity="1.000000" fill-rule="evenodd"/>
	<path id="Rectangle 639" d="M360 0L720 0L720 381C521.178 381 360 219.823 360 21L360 0Z" fill="#FD856D" fill-opacity="1.000000" fill-rule="evenodd"/>
	<rect id="Rectangle 632" x="1440.000000" y="381.000000" width="360.000000" height="380.999969" transform="rotate(180 1440.000000 381.000000)" fill="#EE6C6C" fill-opacity="1.000000"/>
	<rect id="Rectangle 636" x="1080.000000" y="381.000000" width="360.000000" height="380.999969" transform="rotate(180 1080.000000 381.000000)" fill="#FFC464" fill-opacity="1.000000"/>
	<path id="Rectangle 633" d="M1440 381L1080 381L1080 360C1080 161.178 1241.18 0 1440 0L1440 381Z" fill="#FFA3B3" fill-opacity="1.000000" fill-rule="evenodd"/>
	<path id="Rectangle 637" d="M1080 381C881.178 381 720 219.823 720 21L720 0L1080 0L1080 381Z" fill="#A284E8" fill-opacity="1.000000" fill-rule="evenodd"/>
	<path id="Rectangle 360" d="M1440 381L1350 381L1350 375.75C1350 326.044 1390.29 285.75 1440 285.75L1440 381Z" fill="#A95094" fill-opacity="1.000000" fill-rule="nonzero"/>
	<path id="Rectangle 362" d="M1350 381L1260 381L1260 285.75C1309.71 285.75 1350 326.044 1350 375.75L1350 381Z" fill="#A95094" fill-opacity="1.000000" fill-rule="nonzero"/>
	<path id="Rectangle 361" d="M1440 285.75C1390.29 285.75 1350 245.456 1350 195.75L1350 190.5L1440 190.5L1440 285.75Z" fill="#A95094" fill-opacity="1.000000" fill-rule="nonzero"/>
	<path id="Rectangle 363" d="M1350 195.75C1350 245.456 1309.71 285.75 1260 285.75L1260 190.5L1350 190.5L1350 195.75Z" fill="#A95094" fill-opacity="1.000000" fill-rule="nonzero"/>
</svg>
