<svg width="25.308105" height="24.368652" viewBox="0 0 25.3081 24.3687" fill="none" xmlns="http://www.w3.org/2000/svg" xmlns:xlink="http://www.w3.org/1999/xlink">
	<desc>
			Created with Pixso.
	</desc>
	<defs/>
	<path id="Ellipse 71" d="M21.8662 9.68164C21.1758 7.01074 19.4653 4.87061 17.2593 3.5708C14.8838 2.16797 12.1611 1.86426 9.68262 2.50488C7.01074 3.19287 4.87061 4.90332 3.5708 7.10889C2.16797 9.48486 1.86426 12.2075 2.50488 14.686C3.19287 17.3579 4.90332 19.498 7.10889 20.7974C9.48486 22.2002 12.2075 22.5039 14.686 21.8633C17.3579 21.1758 19.498 19.4653 20.7998 17.2607L19.2021 16.3193C18.061 18.2554 16.2412 19.5464 14.2222 20.0684C12.0469 20.6328 9.84668 20.2588 8.05029 19.2002C6.11279 18.061 4.82178 16.2412 4.30029 14.2222C3.73584 12.0469 4.10986 9.84668 5.16846 8.05029C6.30713 6.11279 8.12744 4.82178 10.1465 4.2998C12.3218 3.73535 14.5215 4.10986 16.3184 5.16846C18.2554 6.30713 19.5469 8.12744 20.0708 10.146L21.8662 9.68164Z" fill="#96317D" fill-opacity="1.000000" fill-rule="evenodd"/>
	<path id="Vector 27" d="M14.1279 8.02246L20.8232 10.2964L23.0972 3.60107" stroke="#96317D" stroke-opacity="1.000000" stroke-width="2.000000"/>
</svg>
