<svg width="34.000000" height="34.000000" viewBox="0 0 34 34" fill="none" xmlns="http://www.w3.org/2000/svg" xmlns:xlink="http://www.w3.org/1999/xlink">
	<desc>
			Created with Pixso.
	</desc>
	<defs/>
	<path id="Polygon 1" d="M4.87549 21C3.7207 23 5.16455 25.5 7.47363 25.5L26.5264 25.5C28.8354 25.5 30.2793 23 29.1245 21L19.5981 4.5C18.4434 2.5 15.5566 2.5 14.4019 4.5L4.87549 21ZM3.14355 20C1.21924 23.3335 3.62451 27.5 7.47363 27.5L26.5264 27.5C30.3755 27.5 32.7808 23.3335 30.8564 20L21.3301 3.5C19.4058 0.166504 14.5942 0.166504 12.6699 3.5L3.14355 20Z" fill="#FFC464" fill-opacity="1.000000" fill-rule="evenodd"/>
	<path id="!" d="M18.8086 9.80078L15.832 9.80078L16.3281 17.1133L18.3125 17.1133L18.8086 9.80078ZM16.5797 20.962Q16.9075 21.1289 17.3203 21.1289Q17.7375 21.1289 18.0662 20.9584Q18.2547 20.8607 18.4141 20.707Q18.6394 20.4897 18.7497 20.2245Q18.8555 19.9702 18.8555 19.6719Q18.8555 19.3429 18.7291 19.0731Q18.6214 18.8432 18.4219 18.6562Q18.3004 18.5403 18.1595 18.4571Q17.8022 18.2461 17.3203 18.2461Q16.8423 18.2461 16.4848 18.4537Q16.3399 18.5379 16.2148 18.6562Q16.0206 18.8399 15.9142 19.065Q15.7852 19.338 15.7852 19.6719Q15.7852 19.9747 15.8932 20.2322Q16.0026 20.4929 16.2227 20.707Q16.3864 20.8635 16.5797 20.962Z" fill="#FFC464" fill-opacity="1.000000" fill-rule="evenodd"/>
</svg>
