<svg width="75.579102" height="99.947754" viewBox="0 0 75.5791 99.9478" fill="none" xmlns="http://www.w3.org/2000/svg" xmlns:xlink="http://www.w3.org/1999/xlink">
		<path id="Ellipse 59" d="M27.9744 99.9453C40.0142 99.3774 50.9475 94.5396 59.2917 86.9146C68.8845 78.1733 74.2786 66.5308 75.3665 54.5332C76.5564 41.6099 72.6897 29.375 65.4033 19.7817C57.5681 9.43555 46.4629 3.00781 34.6135 0.836426C22.6951 -1.36475 10.9749 0.880371 1.15308 6.37842C0.00170898 7.02295 -0.336914 8.50244 0.362305 9.62207C1.06104 10.7407 2.53174 11.0752 3.68555 10.4355C13.1436 5.19189 23.7693 3.69775 33.7537 5.53564C45.3005 7.64453 55.0166 13.9907 61.5996 22.6724C68.7048 32.0156 71.6011 43.2534 70.6084 54.1035C69.5554 65.7939 64.1169 76.0454 56.0681 83.3887C48.0405 90.7334 38.0637 94.6235 27.9727 95.1587C26.655 95.2285 25.5852 96.292 25.5852 97.6113C25.5852 98.9312 26.6558 100.007 27.9744 99.9453Z" fill="#2F2F2F" fill-opacity="1.000000" fill-rule="evenodd"/>
		<path id="Ellipse 61" d="M47.613 0.00244141C35.5698 0.568848 24.6335 5.40674 16.2874 13.0337C6.69458 21.7749 1.30054 33.4175 0.212646 45.415C-0.977295 58.3384 2.8894 70.5732 10.1758 80.1665C18.011 90.5127 29.1162 96.9404 40.9656 99.1118C52.887 101.313 64.6101 99.0669 74.4331 93.5659C75.5806 92.9233 75.918 91.4487 75.2212 90.3335C74.5249 89.2188 73.0593 88.8853 71.9099 89.5229C62.4463 94.772 51.8132 96.2681 41.8225 94.4287C30.2712 92.3193 20.5515 85.9707 13.9661 77.2861C6.8584 67.9395 3.96118 56.6973 4.9541 45.8433C6.00732 34.1484 11.448 23.8931 19.4998 16.5469C27.5327 9.19775 37.5168 5.30566 47.615 4.77246C48.9277 4.70312 49.9939 3.64307 49.9939 2.32861C49.9939 1.01318 48.927 -0.059082 47.613 0.00244141Z" fill="#FFC464" fill-opacity="1.000000" fill-rule="evenodd"/>
</svg>

