<svg width="660.000000" height="1000.000000" viewBox="0 0 660 1000" fill="none" xmlns="http://www.w3.org/2000/svg" xmlns:xlink="http://www.w3.org/1999/xlink">
	<desc>
			Created with Pixso.
	</desc>
	<defs/>
	<path id="Vector" d="M660 0L237.41 0C219.489 0 202.033 1.99048 185.248 5.76294C79.2227 29.5918 0 124.521 0 238L422.59 238C440.511 238 457.967 236.01 474.752 232.237C580.777 208.408 660 113.479 660 0Z" fill="#F58599" fill-opacity="1.000000" fill-rule="nonzero"/>
	<path id="Vector" d="M0 1000L0 237.53C0 219.6 1.99023 202.135 5.7627 185.341C29.5918 79.2629 124.521 0 238 0L238 762.47C238 780.4 236.01 797.865 232.237 814.659C208.408 920.737 113.479 1000 0 1000Z" fill="#EB5555" fill-opacity="1.000000" fill-rule="nonzero"/>
	<path id="Vector" d="M503 372L237.264 372C219.354 372 201.909 373.999 185.134 377.787C79.1738 401.716 0 497.044 0 611L265.736 611C283.646 611 301.091 609.001 317.866 605.213C423.826 581.284 503 485.956 503 372Z" fill="#9871E3" fill-opacity="1.000000" fill-rule="nonzero"/>
	<path id="Vector" d="M238 373.257L238 0C124.521 0 29.5918 79.334 5.7627 185.508C1.99023 202.316 0 219.798 0 237.743L0 610.77C0.107422 497.515 79.4922 402.801 185.708 379.013C202.535 375.245 220.035 373.257 238 373.257Z" fill="#FFBA4A" fill-opacity="1.000000" fill-rule="evenodd"/>
	<path id="Vector" d="M5.7627 185.708C1.99023 202.535 0 220.035 0 238L238 238L238 0C220.269 0 202.99 1.93896 186.366 5.61646C186.146 5.66504 185.928 5.71387 185.708 5.76294C96.2461 25.8193 25.8193 96.2463 5.7627 185.708Z" fill="#F5664A" fill-opacity="1.000000" fill-rule="nonzero"/>
	<path id="Vector" d="M5.7627 558.489C1.99023 575.386 0 592.959 0 611L238 611L238 372C220.269 372 202.99 373.947 186.366 377.64C186.146 377.689 185.928 377.738 185.708 377.787C96.2461 397.928 25.8193 468.651 5.7627 558.489Z" fill="#993280" fill-opacity="1.000000" fill-rule="nonzero"/>
</svg>
